<?xml version="1.0" encoding="utf-8"?>
<!-- Generator: Adobe Illustrator 25.4.1, SVG Export Plug-In . SVG Version: 6.00 Build 0)  -->
<svg version="1.1" id="Layer_1" xmlns="http://www.w3.org/2000/svg" xmlns:xlink="http://www.w3.org/1999/xlink" x="0px" y="0px"
	 viewBox="0 0 1823 2500" style="enable-background:new 0 0 1823 2500;" xml:space="preserve">
<style type="text/css">
	.st0{fill:#FFC24A;}
	.st1{fill-rule:evenodd;clip-rule:evenodd;fill:#FFA712;}
	.st2{fill:#FFA713;}
	.st3{fill:#F4BD62;}
	.st4{fill-rule:evenodd;clip-rule:evenodd;fill:#FFA50E;}
	.st5{fill:#FFA40C;}
	.st6{fill:#F5820B;}
	.st7{fill:#FDE068;}
	.st8{fill:#FFCB2B;}
	.st9{fill:#EEAB37;}
</style>
<path class="st0" d="M110.4,1922.4l13.3-18.6L751.9,711.9l1.3-12.6L476.3,179.1c-23.2-43.6-88.5-32.6-96.1,16.2L110.4,1922.4z"/>
<g>
	<path id="a" class="st1" d="M118.3,1908.2l10-19.6L749.9,709.2L473.7,186.9c-23-43.1-81.2-32.1-88.8,16.1L118.3,1908.2z"/>
</g>
<g>
	<path id="a_00000003804510824588754390000011406550028406025395_" class="st2" d="M118.3,1908.2l10-19.6L749.9,709.2L473.7,186.9
		c-23-43.1-81.2-32.1-88.8,16.1L118.3,1908.2z"/>
</g>
<path class="st3" d="M955.1,1092.7l206.2-211.1L955,487.8c-19.6-37.3-74.2-37.4-93.6,0L751.2,697.9v17.9L955.1,1092.7L955.1,1092.7z
	"/>
<g>
	<path id="c" class="st4" d="M951.4,1083.9l200.4-205.3L951.4,496.9c-19-36.2-65.3-40-84.1-3.7L756.5,706.6l-3.3,10.9L951.4,1083.9z
		"/>
</g>
<g>
	<path id="c_00000047032918861321799780000010174566240148789175_" class="st5" d="M951.4,1083.9l200.4-205.3L951.4,496.9
		c-19-36.2-65.3-40-84.1-3.7L756.5,706.6l-3.3,10.9L951.4,1083.9z"/>
</g>
<path class="st6" d="M110.4,1922.4l6-6.1l21.9-8.9l803.8-800.8l10.2-27.7L751.8,696.8L110.4,1922.4z"/>
<path class="st7" d="M980.8,2326.2l727.4-405.7L1500.5,641.2c-6.5-40-55.6-55.8-84.3-27.2L110.4,1922.4l723.3,403.8
	C879.4,2351.7,935.1,2351.7,980.8,2326.2"/>
<path class="st8" d="M1701.7,1917.1L1495.6,647.5c-6.4-39.7-47.3-56.2-75.7-27.7L118.5,1919.9l715.3,399.8
	c45.4,25.3,100.6,25.3,146,0L1701.7,1917.1L1701.7,1917.1z"/>
<path class="st9" d="M980.8,2314.3c-45.7,25.5-101.4,25.5-147.1,0l-717.4-398l-5.8,6.2l723.3,403.8c45.7,25.5,101.4,25.5,147.1,0
	l727.4-405.7l-1.8-11L980.8,2314.3L980.8,2314.3z"/>
</svg>
