<?xml version="1.0" encoding="utf-8"?>
<!-- Generator: Adobe Illustrator 25.4.1, SVG Export Plug-In . SVG Version: 6.00 Build 0)  -->
<svg version="1.1"
	 id="svg20" inkscape:version="0.92.4 (5da689c313, 2019-01-14)" sodipodi:docname="adobe-Illustrator-logo.svg" xmlns:cc="http://creativecommons.org/ns#" xmlns:dc="http://purl.org/dc/elements/1.1/" xmlns:inkscape="http://www.inkscape.org/namespaces/inkscape" xmlns:rdf="http://www.w3.org/1999/02/22-rdf-syntax-ns#" xmlns:sodipodi="http://sodipodi.sourceforge.net/DTD/sodipodi-0.dtd" xmlns:svg="http://www.w3.org/2000/svg"
	 xmlns="http://www.w3.org/2000/svg" xmlns:xlink="http://www.w3.org/1999/xlink" x="0px" y="0px" viewBox="0 0 700 700"
	 style="enable-background:new 0 0 700 700;" xml:space="preserve">
<style type="text/css">
	.st0{fill:#330000;}
	.st1{fill:#FF9A00;}
</style>
<sodipodi:namedview  bordercolor="#666666" borderopacity="1" gridtolerance="10" guidetolerance="10" id="namedview22" inkscape:current-layer="svg20" inkscape:cx="333.84615" inkscape:cy="243.2365" inkscape:pageopacity="0" inkscape:pageshadow="2" inkscape:window-height="837" inkscape:window-maximized="1" inkscape:window-width="1600" inkscape:window-x="-8" inkscape:window-y="-8" inkscape:zoom="0.71315043" objecttolerance="10" pagecolor="#ffffff" showgrid="false">
	</sodipodi:namedview>
<g id="Layer_2_00000168823209877677538830000014833742010703369097_" transform="matrix(2.09238,0,0,2.09238,98.9144,105.19154)" inkscape:export-filename="G:\Users\suitedoalex\sites\adobe-Illustrator-logo-4.png" inkscape:export-xdpi="76.467949" inkscape:export-ydpi="76.467949">
	<g id="Surfaces">
		<g id="Drawing_Surface">
			<g id="Outline_no_shadow">
				<path id="rect8" class="st0" d="M12.4-45.5h215.3c32.6,0,59,26.4,59,59v206.9c0,32.6-26.4,59-59,59H12.4c-32.6,0-59-26.4-59-59
					V13.5C-46.7-19.1-20.2-45.5,12.4-45.5z"/>
			</g>
		</g>
	</g>
	<g id="Outlined_Mnemonics_Logos">
		<g id="Ai">
			<path id="path13" inkscape:connector-curvature="0" class="st1" d="M114.9,149.5H63.2l-10.5,32.6c-0.3,1.2-1.4,2.1-2.7,2H23.9
				c-1.5,0-2-0.8-1.6-2.5L67,52.9c0.4-1.3,0.9-2.9,1.3-4.6c0.6-3,0.9-6,0.9-9.1c-0.1-0.8,0.4-1.5,1.2-1.6c0.1,0,0.3,0,0.4,0h35.6
				c1,0,1.6,0.4,1.8,1.1L158.9,182c0.4,1.5,0,2.2-1.3,2.2h-29.1c-1,0.1-2-0.6-2.2-1.6L114.9,149.5z M71.3,121.4h35.3
				c-0.9-3-1.9-6.3-3.1-10.1c-1.2-3.7-2.5-7.7-3.8-12c-1.3-4.2-2.7-8.5-4-12.7c-1.3-4.2-2.6-8.3-3.7-12.3c-1.1-3.9-2.1-7.6-3-10.8
				h-0.2c-1.3,6-2.8,12-4.7,17.9c-2.1,6.7-4.2,13.6-6.4,20.6C75.5,108.9,73.3,115.4,71.3,121.4L71.3,121.4z"/>
			<path id="path15" inkscape:connector-curvature="0" class="st1" d="M189.1,61.4c-4.6,0.2-9.1-1.6-12.3-4.9
				c-3.2-3.5-4.9-8-4.7-12.7c-0.2-4.7,1.7-9.2,5-12.4c3.3-3.2,7.8-4.9,12.4-4.8c5.4,0,9.6,1.6,12.6,4.8c3.1,3.4,4.8,7.8,4.6,12.4
				c0.2,4.7-1.5,9.3-4.8,12.7C198.5,59.9,193.9,61.7,189.1,61.4L189.1,61.4z M173.7,182V75.1c0-1.3,0.6-2,1.8-2H203
				c1.2,0,1.8,0.7,1.8,2V182c0,1.5-0.6,2.2-1.8,2.2h-27.3C174.3,184.2,173.7,183.5,173.7,182z"/>
		</g>
	</g>
</g>
</svg>
