<?xml version="1.0" encoding="utf-8"?>
<!-- Generator: Adobe Illustrator 25.4.1, SVG Export Plug-In . SVG Version: 6.00 Build 0)  -->
<svg version="1.1" id="Layer_1" xmlns="http://www.w3.org/2000/svg" xmlns:xlink="http://www.w3.org/1999/xlink" x="0px" y="0px"
	 viewBox="0 0 2261 2500" style="enable-background:new 0 0 2261 2500;" xml:space="preserve">
<style type="text/css">
	.st0{fill:#99425B;}
	.st1{fill:#FFFFFF;}
</style>
<path class="st0" d="M2111.5,1246.5c0-125.2-101.5-226.8-226.8-226.8c-8.1,0-16,0.4-23.8,1.3l311.5-918.7H848.7l311,917.9
	c-4.6-0.3-9.2-0.4-13.8-0.4c-125.2,0-226.8,101.5-226.8,226.8c0,101.2,66.3,186.9,157.9,216.1c-48.4,83.8-109.2,159.2-178.3,224.4
	c-94,88.6-201.5,155.8-317.8,197.3c-138.5-71.1-203.8-229.3-144.9-368c6.7-15.7,13.5-31.5,20-47.3
	c100.3-23.4,175.1-113.3,175.1-220.8c0-125.2-101.5-226.8-226.8-226.8s-226.8,101.5-226.8,226.8c0,76.8,38.2,144.6,96.6,185.7
	c-56.1,127.8-138.6,261.5-164.3,416.6c-30.8,185.8-0.1,383,160.6,494.3c374.2,259.4,780.4-160.8,1208.7-266.4
	c155.2-38.3,325.6-32.1,462.3-111.3c102.7-59.5,170.4-158.1,189.6-268.7c19-109.3-8.7-218.2-72.3-306.4
	C2092.9,1351.2,2111.6,1299.7,2111.5,1246.5"/>
<path class="st1" d="M2076.5,1688.8c-16.7,96.1-76,180-162.8,230.3c-80.9,46.8-177.8,60.8-280.5,75.6c-55,7.9-111.8,16.1-167.4,29.8
	c-146.9,36.2-289.1,106.9-426.6,175.2c-275.3,136.7-513,254.8-737.2,99.4c-164.2-113.8-156.6-324.4-137.5-439.7
	c17.7-106.9,65.7-205.4,112-300.6c7.9-16.2,15.7-32.4,23.5-48.6c23.4,9.3,47.9,15.5,72.9,18.3c-47.2,155.7,27,325,182.8,405l21.3,11
	l22.6-8c123.1-43.9,236.6-114.2,337.2-209.2c65-61.4,121-129.3,166.9-201.8c14,2.1,28.1,3.2,42.2,3.2
	c142.9,0,261.3-106.9,279.6-244.9c58.5-2.1,120.7-2.2,179.5,0c18.3,138,136.7,244.9,279.6,244.9c59.8,0,115.2-18.7,160.9-50.6
	C2077.3,1543.1,2089.1,1616.1,2076.5,1688.8L2076.5,1688.8z M404.4,1076.8c94.5,0,171.4,76.9,171.4,171.4c0,33.9-10,65.6-27.1,92.3
	c-28.5,44.4-76.9,74.9-132.6,78.7c-3.9,0.3-7.8,0.4-11.8,0.4c-21.1,0-41.2-3.8-59.9-10.8c-37.6-14.1-69-40.9-89-75.8
	c-14.8-25.8-22.6-55.1-22.5-84.8C233,1153.7,309.9,1076.8,404.4,1076.8L404.4,1076.8z M974.6,1246.5c0-85.9,63.5-157.2,145.9-169.5
	c8.3-1.3,16.8-1.9,25.4-1.9c54.9,0,103.9,26,135.2,66.4c7.9,10.1,14.6,21,20,32.5c10.7,22.7,16.2,47.5,16.1,72.5
	c0,13.7-1.7,27-4.7,39.8c-16.7,69.9-76.3,123.4-149.4,130.7c-5.7,0.6-11.4,0.9-17.3,0.9c-33,0-65.2-9.5-92.9-27.5
	C1005.9,1359.9,974.6,1306.8,974.6,1246.5L974.6,1246.5z M1689.9,1042.7c-37.3,35.6-64.1,80.7-77.6,130.5
	c-64.6-2.4-129.3-2.4-193.9,0c-14.5-53.8-44.6-101.3-85-137.3l177.4-358.6L1689.9,1042.7z M925.9,157.8h1169.1l-276.1,814.4
	c-11.9,2.8-23.6,6.5-35,10.8l-272.8-556.5l-273.6,553.1c-11.9-4.1-24.1-7.4-36.5-9.8L925.9,157.8z M2056.1,1246.5
	c0,17.2-2.6,33.8-7.3,49.4c-11.2,36.9-34.5,68.9-66.1,91c-28.7,20.2-63,31-98,30.9c-79.1,0-145.9-53.9-165.5-127
	c-3.9-14.5-5.9-29.4-5.9-44.4c0-23.4,4.7-45.8,13.3-66.1c4.4-10.4,9.8-20.4,16.2-29.7c30.8-45.5,82.9-75.6,141.9-75.6
	c5.4,0,10.7,0.3,16,0.8C1987.8,1084,2056.1,1157.4,2056.1,1246.5L2056.1,1246.5z M2166.9,1246.5c0-137.8-99.3-252.7-230-277.2
	L2249.6,47H771.4l313.2,924.2c-126.2,28.1-220.8,140.8-220.8,275.4c0,101,53.4,189.7,133.4,239.6c-38.5,57.3-84.1,111.3-136.4,160.6
	c-82.9,78.2-175.3,137.6-274.9,176.6c-100.3-63-142.7-181.9-98.7-285.4l3.5-8.1l6.5-15.2c110.2-38.4,189.5-143.3,189.5-266.5
	C686.6,1092.6,560,966,404.4,966s-282.2,126.6-282.2,282.2c0,78.5,32.3,149.6,84.2,200.9c-9.7,20.5-19.5,41-29.5,61.4
	c-47.5,97.6-101.3,208.1-121.7,330.9c-40.4,243.9,24.8,438.8,183.7,548.9c96.4,66.8,194.3,93.1,292.8,93.1
	c185.5,0,373.2-93.2,556.7-184.4c132.2-65.6,268.9-133.5,403.9-166.8c50.2-12.4,101.9-19.8,156.7-27.7
	c108.5-15.7,220.8-31.8,320.2-89.4c115.2-66.7,194.1-178.7,216.4-307.2c19.1-110.3-3.9-220.7-60.1-314.4
	C2152.6,1349.2,2166.9,1298.4,2166.9,1246.5L2166.9,1246.5z"/>
</svg>
